<?xml version="1.0" encoding="UTF-8"?>
<svg color="yellow" version="1.1" viewBox="37 25 73 56" xmlns="http://www.w3.org/2000/svg" xmlns:xlink="http://www.w3.org/1999/xlink">
<desc>Created with Sketch.</desc>
<defs>
<polygon id="c" points="1.0199e-20 0.12277 1.0199e-20 12.393 9.918 12.393 9.918 0.12277 0 0.12277"/>
<polygon id="b" points="0 54.147 72.849 54.147 72.849 0.25269 0 0.25269"/>
</defs>
<g transform="translate(37 25)"  fill-rule="evenodd">
<polygon points="1.891 39.591 1.891 27.337 4.6123 27.337 4.6123 36.855 10.612 36.855 10.612 39.591" />
<polygon points="14.336 29.991 14.336 32.12 17.86 32.12 17.86 34.791 14.336 34.791 14.336 36.904 20.123 36.904 20.123 39.591 11.664 39.591 11.664 27.321 20.123 27.321 20.123 29.991" />
<g transform="translate(0 .12334)">
<path d="m25.043 33.324c0-3.3748 2.7379-6.1269 6.1147-6.1269 1.7377 0 3.4099 0.73738 4.5738 2.0478l-2.0165 1.7857c-0.65549-0.72084-1.5736-1.1307-2.5573-1.1307-1.8852 0-3.4265 1.5236-3.4265 3.4241 0 1.8835 1.5413 3.4072 3.4265 3.4072 1.4096 0 2.6231-0.85169 3.1477-2.064h-3.1477v-2.7029h6.1316v1.3597c0 3.3748-2.7544 6.1108-6.1316 6.1108-3.3768 0-6.1147-2.736-6.1147-6.1108z" />
<path d="m41.39 32.096h3.4592c0.11439-0.016545 0.40978-0.065804 0.67205-0.21321 0.21298-0.11469 0.42634-0.31135 0.42634-0.85169 0-0.47529-0.14751-0.73738-0.52455-0.95059-0.27845-0.1474-0.59002-0.19591-0.67205-0.19591h-3.361v2.2114zm0 7.372h-2.672v-12.27l6.1636 0.016169c1.5089 0.081973 3.7546 1.1472 3.7546 3.8174 0 1.638-0.85229 2.654-1.8528 3.2105l2.6397 5.2264h-2.9998l-2.3608-4.7018h-2.6724v4.7018z" />
<polygon points="53.606 29.868 53.606 31.997 57.131 31.997 57.131 34.667 53.606 34.667 53.606 36.781 59.393 36.781 59.393 39.468 50.934 39.468 50.934 27.198 59.393 27.198 59.393 29.868" />
<path d="m60.871 33.357c0-3.4072 2.7541-6.1593 6.1636-6.1593 1.7215 0 3.3772 0.73701 4.5576 2.0309l-1.9834 1.7857c-0.67243-0.73738-1.6068-1.1465-2.5742-1.1465-1.9341 0-3.4916 1.556-3.4916 3.4891 0 1.917 1.5575 3.4733 3.4916 3.4733 0.96744 0 1.9018-0.40987 2.5742-1.1472l1.9834 1.8023c-1.1804 1.2939-2.8361 2.0151-4.5576 2.0151-3.4096 0-6.1636-2.7687-6.1636-6.1435" />
<g transform="translate(0 41.739)">
<mask id="d" fill="white">
<use xlink:href="#c"/>
</mask>
<path d="m6.1311 5.0043c0.11477-0.016545 0.42634-0.065428 0.67205-0.19666 0.22954-0.13123 0.44289-0.32714 0.44289-0.86824 0-0.45875-0.14788-0.72084-0.5411-0.93404-0.27883-0.1474-0.59002-0.19591-0.65587-0.21245h-3.3772v2.2114h3.4592zm-6.1312 7.3885v-12.27h6.164c1.5082 0.081973 3.7542 1.1792 3.7542 3.8166 0 2.6705-2.2133 3.7189-3.7211 3.7516h-0.033113-3.492v4.7018h-2.672z"  mask="url(#d)"/>
</g>
<path d="m12.805 49.348h1.6557l-0.78682-2.1787-0.86885 2.1787zm-4.8199 4.7996l4.853-12.335h1.7866l4.4918 12.335h-2.9343l-0.7379-2.0802h-3.7211l-0.7872 2.0802h-2.9509z" />
<path d="m23.07 46.76h3.4592c0.11439-0.016545 0.40978-0.065804 0.67168-0.21321 0.21336-0.11469 0.42671-0.31135 0.42671-0.85169 0-0.47529-0.14788-0.73738-0.52492-0.95059-0.27845-0.1474-0.59002-0.19591-0.67205-0.19591h-3.3606v2.2114zm0 7.372h-2.672v-12.27l6.1636 0.016169c1.5085 0.081973 3.7542 1.1472 3.7542 3.8174 0 1.638-0.85229 2.654-1.8525 3.2105l2.6397 5.2264h-3.0001l-2.3605-4.7018h-2.6724v4.7018z" />
<mask id="a" fill="white">
<use xlink:href="#b"/>
</mask>
<polygon points="32.613 54.131 35.335 54.131 35.335 41.861 32.613 41.861"  mask="url(#a)"/>
<path d="m46.254 50.855c-0.098588 1.0649-0.80375 2.0317-1.8856 2.6213-0.803 0.4422-1.7373 0.65541-2.7213 0.65541-0.21298 0-0.42634-0.016545-0.62276-0.032714-1.7377-0.16395-3.2459-0.9833-4.0165-2.1629l2.2461-1.4744c0.26227 0.42604 0.98324 0.88478 2.0162 0.9833 0.67243 0.065052 1.3441-0.049259 1.8197-0.31135 0.29501-0.1474 0.49181-0.36061 0.50837-0.54072 0.01618-0.24592-0.065474-1.0649-2.0986-1.2616-2.9012-0.27788-4.7051-1.9655-4.4918-4.1773 0.098211-1.0976 0.80338-2.0475 1.9018-2.654 0.95051-0.49146 2.1471-0.72046 3.3445-0.60577 1.7208 0.16357 3.2289 0.98293 4.0161 2.1621l-2.2461 1.4582c-0.2619-0.40987-0.98362-0.85169-2.0327-0.95021-0.67168-0.065428-1.3441 0.049259-1.8197 0.29518-0.27883 0.16319-0.47563 0.3764-0.49143 0.54035-0.082031 0.83515 1.3279 1.1958 2.0816 1.2612v0.016545c2.9509 0.27863 4.7051 1.9166 4.4921 4.1773"  mask="url(#a)"/>
<polygon points="47.928 54.131 50.649 54.131 50.649 41.861 47.928 41.861"  mask="url(#a)"/>
<polygon points="55.109 44.531 55.109 46.661 58.634 46.661 58.634 49.331 55.109 49.331 55.109 51.445 60.896 51.445 60.896 54.131 52.437 54.131 52.437 41.861 60.896 41.861 60.896 44.531"  mask="url(#a)"/>
<polygon points="65.439 54.131 62.702 54.131 62.702 41.845 64.98 41.845 70.111 48.643 70.111 41.845 72.849 41.845 72.849 54.131 70.8 54.131 65.439 47.038"  mask="url(#a)"/>
<path d="m18.32 1.2406c0.13697 9.4273 7.5495 17.052 16.642 17.052 9.0926 0 16.506-7.6243 16.642-17.052h-33.284zm16.642 17.583c-9.4704 0-17.175-8.0067-17.175-17.848v-0.26585h34.351v0.26585c0 9.8417-7.7053 17.848-17.176 17.848z"  mask="url(#a)"/>
<path d="m18.789 1.6976c0.36613 8.9234 7.566 16.138 16.172 16.138 8.6061 0 15.806-7.2148 16.173-16.138h-32.345zm16.172 16.669c-8.979 0-16.477-7.5938-16.712-16.928l-0.0067732-0.27262h33.439l-0.0067732 0.27262c-0.23631 9.334-7.7339 16.928-16.713 16.928zm-16.909-17.583c-0.10536 0-0.19115 0.085733-0.19115 0.19102 0 9.8007 7.671 17.774 17.1 17.774 9.4294 0 17.101-7.9732 17.101-17.774 0-0.10529-0.085418-0.19102-0.19078-0.19102h-33.819zm16.909 18.496c-9.7222 0-17.632-8.212-17.632-18.305 0-0.39821 0.32398-0.72197 0.72285-0.72197h33.819c0.39849 0 0.72247 0.32376 0.72247 0.72197 0 10.093-7.9096 18.305-17.633 18.305z"  mask="url(#a)"/>
<path d="m33.385 14.266c-0.19718 0-0.39435-0.075957-0.54336-0.22749l-2.6325-2.6773c-0.29501-0.29969-0.29087-0.78138 0.009031-1.0762 0.30028-0.2948 0.7823-0.29029 1.0769 0.0094006l2.6329 2.6769c0.29501 0.30007 0.29087 0.78175-0.009031 1.0766-0.14863 0.14552-0.34129 0.21809-0.53395 0.21809"  mask="url(#a)"/>
<path d="m38.865 8.7236c-0.19718 0-0.39397-0.075957-0.54336-0.22749l-2.6325-2.6773c-0.29501-0.29969-0.29087-0.78138 0.009031-1.0762 0.2999-0.29443 0.7823-0.29067 1.0773 0.0094006l2.6329 2.6769c0.29463 0.30007 0.29049 0.78175-0.0094073 1.0762-0.14826 0.1459-0.34129 0.21847-0.53395 0.21847"  mask="url(#a)"/>
<path d="m38.919 14.266c-0.19567 0-0.39134-0.074829-0.54035-0.22486l-8.167-8.2191c-0.29652-0.29856-0.29463-0.78025 0.0037629-1.0766 0.2984-0.29593 0.7808-0.29443 1.0769 0.0037602l8.167 8.2195c0.29652 0.29819 0.29463 0.78025-0.0037629 1.0762-0.14863 0.1474-0.3428 0.2211-0.53659 0.2211"  mask="url(#a)"/>
</g>
</g>
</svg>
