<?xml version="1.0" encoding="UTF-8"?>
<svg version="1.1" viewBox="0 0 512 512" xmlns="http://www.w3.org/2000/svg">
		<path d="m491.32 235.32h-470.64c-11.422 0-20.682 9.259-20.682 20.682s9.26 20.682 20.682 20.682h470.64c11.423 0 20.682-9.259 20.682-20.682 0-11.422-9.259-20.682-20.682-20.682z"/>
		<path d="m491.32 78.439h-470.64c-11.422 0-20.682 9.26-20.682 20.682s9.26 20.682 20.682 20.682h470.64c11.423 0 20.682-9.26 20.682-20.682s-9.259-20.682-20.682-20.682z"/>
		<path d="m491.32 392.2h-470.64c-11.422 0-20.682 9.259-20.682 20.682s9.26 20.682 20.682 20.682h470.64c11.423 0 20.682-9.259 20.682-20.682s-9.259-20.682-20.682-20.682z"/>
</svg>
