<?xml version="1.0" encoding="iso-8859-1"?>
<!-- Generator: Adobe Illustrator 19.0.0, SVG Export Plug-In . SVG Version: 6.00 Build 0)  -->
<svg version="1.1" id="Capa_1" xmlns="http://www.w3.org/2000/svg" xmlns:xlink="http://www.w3.org/1999/xlink" x="0px" y="0px"
	 viewBox="0 0 511.999 511.999" style="enable-background:new 0 0 511.999 511.999;" xml:space="preserve">
<g>
	<g>
		<path d="M240.77,136.726c-0.102-4.458-3.139-8.311-7.45-9.448l-95.351-25.146c-0.007-0.003-0.015-0.004-0.022-0.006l-35.911-9.471
			c-4.253-1.124-8.751,0.672-11.063,4.421c-14.383,23.33-25.694,49.285-32.71,75.061c-11.712,43.018-9.724,79.923,5.749,106.725
			c8.952,15.507,22.089,26.887,38.321,33.37L65.568,447.283l-53.016-13.982c-5.336-1.408-10.811,1.778-12.219,7.119
			c-1.409,5.34,1.778,10.811,7.119,12.22c0.005,0.001,62.526,16.491,62.531,16.493c0.005,0.001,62.681,16.531,62.687,16.532
			c0.854,0.225,1.712,0.333,2.557,0.333c4.431,0,8.48-2.967,9.662-7.452c1.409-5.34-1.778-10.811-7.119-12.22l-52.862-13.942
			l36.758-135.023c3.603,0.499,7.209,0.756,10.79,0.756c44.591,0,81.418-37.484,98.511-100.27
			C237.985,192.066,241.374,164.014,240.77,136.726z M211.667,212.594c-14.579,53.551-44.19,85.523-79.213,85.523
			c-5.101,0-10.295-0.688-15.44-2.045c-15.412-4.065-27.751-13.474-35.68-27.21c-9.407-16.295-12.574-37.792-9.463-63.112
			c13.352,2.172,25.96,3.014,37.909,3.014c19.664,0,37.58-2.218,54.236-4.28c18.789-2.326,35.464-4.381,50.284-2.527
			C213.493,205.541,212.62,209.092,211.667,212.594z M217.952,182.278c-17.727-2.413-36.602-0.092-56.391,2.358
			c-25.31,3.133-53.69,6.644-86.177,1.437c0.659-2.858,1.379-5.749,2.178-8.682c5.892-21.646,15.056-43.448,26.649-63.478
			l15.889,4.191c-2.88,5.55-5.536,11.252-7.605,15.895c-2.248,5.044,0.019,10.956,5.063,13.205c1.323,0.59,2.705,0.869,4.065,0.869
			c3.827,0,7.481-2.21,9.14-5.931c3.235-7.258,6.396-13.697,9.215-18.796l80.856,21.324
			C220.751,157.217,219.774,169.864,217.952,182.278z"/>
	</g>
</g>
<g>
	<g>
		<g>
			<path d="M442.016,469.133c-0.004,0.002-0.009,0.002-0.013,0.003l-62.175,16.398C385.681,483.989,442.021,469.132,442.016,469.133
				z"/>
			<path d="M379.828,485.533c-0.321,0.085-0.499,0.132-0.499,0.132L379.828,485.533z"/>
			<path d="M511.665,440.42c-1.407-5.34-6.883-8.524-12.219-7.119l-53.017,13.982L409.664,312.23
				c16.232-6.483,29.369-17.863,38.32-33.37c15.473-26.802,17.461-63.707,5.75-106.724c-7.017-25.776-18.328-51.731-32.711-75.061
				c-2.313-3.749-6.807-5.546-11.063-4.421l-131.282,34.624c-4.311,1.137-7.349,4.99-7.448,9.448
				c-0.544,24.555,2.156,49.72,7.814,73.299c0.063,0.331,0.141,0.659,0.236,0.98c0.561,2.295,1.138,4.581,1.754,6.843
				c17.09,62.781,53.915,100.266,98.508,100.27c0.002,0,0.004,0,0.007,0c3.579,0,7.184-0.257,10.785-0.756l36.758,135.023
				l-52.862,13.942c-5.341,1.408-8.528,6.879-7.119,12.22c1.183,4.486,5.232,7.452,9.662,7.452c0.844,0,1.703-0.108,2.557-0.333
				L442,469.136c0.001,0,0.002,0,0.003,0l62.545-16.495C509.887,451.232,513.074,445.76,511.665,440.42z M291.166,144.667
				l116.62-30.756c11.594,20.03,20.758,41.832,26.65,63.479c1.709,6.278,3.091,12.383,4.16,18.307
				c-6.083-0.603-12.282-0.696-18.597-0.444c-1.073-7.321-2.654-14.952-4-20.871c-1.223-5.385-6.584-8.76-11.967-7.535
				c-5.386,1.224-8.76,6.582-7.535,11.968c1.517,6.673,2.71,12.822,3.523,18.09c-4.528,0.516-9.105,1.098-13.735,1.688
				c-25.961,3.313-55.188,7.038-89.119,0.986C293.331,181.771,291.284,163.113,291.166,144.667z M379.549,298.116
				c-0.002,0-0.004,0-0.005,0c-33.219-0.003-61.56-28.779-76.831-77.433c11.149,1.529,21.755,2.152,31.866,2.152
				c19.724,0,37.614-2.283,54.239-4.404c19.607-2.501,36.884-4.702,52.245-2.287c1.165,20.835-2.309,38.701-10.4,52.716
				c-7.93,13.736-20.268,23.146-35.68,27.21C389.838,297.429,384.646,298.116,379.549,298.116z"/>
		</g>
	</g>
</g>
<g>
	<g>
		<path d="M255.999,26.001c-5.522,0-10,4.477-10,10v26.083c0,5.523,4.478,10,10,10c5.522,0,10-4.477,10-10V36.001
			C265.999,30.478,261.522,26.001,255.999,26.001z"/>
	</g>
</g>
<g>
	<g>
		<path d="M223.625,75.043l-13.25-22.589c-2.795-4.764-8.921-6.362-13.686-3.566c-4.764,2.794-6.36,8.921-3.566,13.685l13.25,22.589
			c1.862,3.174,5.203,4.942,8.636,4.942c1.719,0,3.46-0.443,5.05-1.376C224.823,85.934,226.419,79.807,223.625,75.043z"/>
	</g>
</g>
<g>
	<g>
		<path d="M315.31,48.889c-4.765-2.795-10.891-1.198-13.686,3.566l-13.25,22.589c-2.795,4.763-1.198,10.891,3.566,13.685
			c1.59,0.933,3.331,1.376,5.05,1.376c3.432,0,6.773-1.768,8.636-4.942l13.25-22.589C321.67,57.81,320.073,51.683,315.31,48.889z"/>
	</g>
</g>
<g>
	<g>
		<path d="M408.565,146.737c-0.005-0.013-0.013-0.038-0.02-0.061c-1.633-5.233-7.183-8.183-12.437-6.596
			c-5.288,1.596-8.28,7.176-6.684,12.463c0.018,0.053,0.048,0.151,0.066,0.209c1.35,4.258,5.285,6.982,9.53,6.982
			c0.991,0,2-0.149,2.996-0.462C407.286,157.619,410.217,152.007,408.565,146.737z"/>
	</g>
</g>
<g>
	<g>
		<circle cx="109.998" cy="163.997" r="10"/>
	</g>
</g>
<g>
</g>
<g>
</g>
<g>
</g>
<g>
</g>
<g>
</g>
<g>
</g>
<g>
</g>
<g>
</g>
<g>
</g>
<g>
</g>
<g>
</g>
<g>
</g>
<g>
</g>
<g>
</g>
<g>
</g>
</svg>
