<?xml version="1.0" encoding="iso-8859-1"?>
<!-- Generator: Adobe Illustrator 19.0.0, SVG Export Plug-In . SVG Version: 6.00 Build 0)  -->
<svg version="1.1" id="Capa_1" xmlns="http://www.w3.org/2000/svg" xmlns:xlink="http://www.w3.org/1999/xlink" x="0px" y="0px"
	 viewBox="0 0 511.999 511.999" style="enable-background:new 0 0 511.999 511.999;" xml:space="preserve">
<g>
	<g>
		<path d="M96.151,326.318c-3.386-3.375-8.88-3.372-12.269,0.005c-3.389,3.378-3.391,8.852-0.005,12.227
			c3.387,3.375,8.879,3.373,12.269-0.005C99.535,335.167,99.537,329.693,96.151,326.318z"/>
	</g>
</g>
<g>
	<g>
		<path d="M91.224,380.12c-3.388-3.375-8.88-3.373-12.27,0.004c-3.389,3.378-3.391,8.852-0.004,12.227
			c3.386,3.375,8.879,3.373,12.269-0.004C94.608,388.969,94.61,383.495,91.224,380.12z"/>
	</g>
</g>
<g>
	<g>
		<path d="M159.938,350.748c-3.387-3.374-8.879-3.372-12.269,0.005c-3.389,3.378-3.391,8.852-0.005,12.227s8.879,3.373,12.269-0.005
			C163.322,359.597,163.324,354.123,159.938,350.748z"/>
	</g>
</g>
<g>
	<g>
		<path d="M62.608,349.97c-3.387-3.375-8.88-3.372-12.269,0.005c-3.389,3.378-3.391,8.852-0.004,12.227
			c3.386,3.375,8.879,3.373,12.269-0.005C65.993,358.819,65.995,353.345,62.608,349.97z"/>
	</g>
</g>
<g>
	<g>
		<path d="M111.72,252.135c-3.388-3.375-8.88-3.373-12.27,0.005c-3.389,3.378-3.391,8.852-0.004,12.227
			c3.386,3.375,8.879,3.373,12.269-0.005C115.104,260.984,115.106,255.51,111.72,252.135z"/>
	</g>
</g>
<g>
	<g>
		<path d="M193.497,284.71c-3.387-3.375-8.879-3.373-12.269,0.005c-3.39,3.378-3.391,8.852-0.005,12.227
			c3.386,3.375,8.879,3.373,12.269-0.005S196.884,288.085,193.497,284.71z"/>
	</g>
</g>
<g>
	<g>
		<path d="M177.164,219.505c-3.386-3.375-8.879-3.373-12.269,0.005c-3.389,3.378-3.391,8.852-0.004,12.227
			c3.386,3.375,8.879,3.373,12.269-0.005C180.548,228.354,180.55,222.88,177.164,219.505z"/>
	</g>
</g>
<g>
	<g>
		<path d="M283.495,211.314c-3.386-3.375-8.879-3.373-12.269,0.005c-3.389,3.378-3.391,8.852-0.005,12.227
			c3.387,3.374,8.88,3.372,12.269-0.005C286.879,220.163,286.881,214.689,283.495,211.314z"/>
	</g>
</g>
<g>
	<g>
		<path d="M508.204,157.246c-0.334-4.542-1.655-8.878-3.86-12.763c-2.718-7.73-6.135-15.525-10.238-23.294l8.533-8.504
			c5.775-5.755,8.955-13.432,8.955-21.618c0-8.186-3.18-15.864-8.955-21.618c-8.053-8.027-19.559-10.654-29.887-7.772
			c-1.371-5.013-4.202-9.877-8.272-13.95c-6.756-6.76-15.69-10.146-23.896-9.06l-2.994,0.397c1.578-9.465-1.335-19.467-8.541-26.648
			c-11.93-11.89-31.343-11.89-43.274,0l-6.736,6.714c-17.819-6.308-35.38-8.901-51.059-7.491
			c-18.143,1.632-33.875,8.616-45.494,20.196L20.658,292.78C7.144,306.249,0,324.914,0,346.758
			c0,37.83,21.459,81.801,57.403,117.624c19.767,19.7,45.728,29.548,71.702,29.547c3.308,0,6.615-0.162,9.911-0.482
			c-0.094,0.228-0.179,0.462-0.252,0.704c-1.197,3.966,1.047,8.151,5.012,9.348c11.097,3.351,21.729,5.002,31.6,5.002
			c18.258,0,33.893-5.655,44.939-16.665L453.841,259.1c14.741-2.713,27.562-9.136,37.5-19.04
			c13.954-13.907,21.09-33.269,20.638-55.996C511.808,175.413,510.52,166.416,508.204,157.246z M472.642,77.963
			c6.072-3.853,14.172-3.107,19.41,2.113c2.93,2.919,4.543,6.823,4.543,10.991c0,4.169-1.613,8.073-4.543,10.993l-13.204,13.16
			c-2.094-4.863-5.102-9.331-8.926-13.142c-0.138-0.137-0.293-0.27-0.434-0.407L472.642,77.963z M399.365,162.381l21.969-2.911
			c4.146-0.551,9.604,3.239,11.704,8.104c0.656,1.521,0.913,3.004,0.741,4.291l-2.768,20.803c-0.546,4.106,2.34,7.878,6.445,8.424
			c0.336,0.044,0.669,0.066,0.999,0.066c3.702,0,6.923-2.742,7.425-6.512l2.768-20.802c0.308-2.312,0.21-4.708-0.256-7.096
			l18.264-18.202c2.373-2.365,5.422-3.868,8.817-4.347c4.964-0.702,9.806,0.884,13.281,4.348c0.752,0.75,1.414,1.566,1.987,2.433
			c0.964,2.842,1.808,5.664,2.552,8.467c0,0.031,0.004,0.062,0.004,0.093c0,4.169-1.614,8.073-4.543,10.993l-49.123,48.957
			c-9.361,0.382-20.311-1.53-31.907-5.72c0.671-0.672,1.239-1.468,1.627-2.399C415.88,195.729,411.839,176.429,399.365,162.381z
			 M429.051,55.655c0.121-0.121,0.241-0.248,0.362-0.373l13.142-1.743c3.557-0.472,7.89,1.365,11.315,4.793
			c3.403,3.405,5.227,7.705,4.759,11.221l-0.447,3.357c0,0.002,0,0.003,0,0.005l-2.632,19.784
			c-3.587-1.407-7.367-2.331-11.255-2.717c-4.119-0.407-7.795,2.6-8.204,6.723c-0.409,4.122,2.601,7.795,6.722,8.205
			c5.158,0.512,10.027,2.464,14.084,5.648c0.899,0.706,1.696,1.407,2.437,2.145c4.729,4.714,7.536,10.975,7.902,17.63
			c0.01,0.181,0.01,0.363,0.016,0.544c-4.189,1.497-7.991,3.865-11.182,7.046l-15.092,15.04c-5.582-5.763-13.3-9.084-20.697-8.438
			c1.469-6.177,2.566-12.777,3.257-19.739c0.561-5.67,0.847-11.516,0.849-17.378c0-0.281-0.004-0.56-0.008-0.839l-0.005-0.46
			c-0.058-8.683-0.729-17.175-1.994-25.241c-0.844-5.381-1.944-10.505-3.28-15.296L429.051,55.655z M396.363,23.044
			c6.093-6.072,16.006-6.073,22.099-0.001c5.553,5.534,6.091,14.369,1.253,20.546c-0.467,0.595-0.864,1.052-1.253,1.439
			l-5.075,5.058c-6.082-12.62-14.118-19.841-23.299-20.788L396.363,23.044z M375.731,57.415c3.806-8.159,8.506-13.228,12.268-13.23
			H388c4.226,0.001,10.653,6.667,15.491,21.56c1.711,5.267,3.08,11.137,4.069,17.446c1.149,7.332,1.76,15.076,1.813,23.019
			l0.013,1.194c-0.002,5.37-0.263,10.721-0.775,15.901c-0.84,8.468-2.323,16.29-4.398,23.301l-20.032,2.654l12.122-12.081
			c5.774-5.754,8.955-13.431,8.955-21.616c0-8.186-3.18-15.864-8.955-21.619c-7.635-7.61-18.38-10.366-28.281-8.172
			C369.535,74.838,372.175,65.04,375.731,57.415z M314.547,88.285c0.477-0.475,1.049-0.953,1.799-1.503
			c6.174-4.524,14.901-3.878,20.3,1.503c5.391,5.372,6.039,14.054,1.509,20.192c-0.551,0.746-1.03,1.315-1.509,1.792
			c-2.935,2.924-2.942,7.673-0.019,10.607c1.465,1.471,3.389,2.206,5.313,2.206c1.915,0,3.83-0.729,5.294-2.188
			c0.256-0.255,0.509-0.519,0.761-0.792c0.07-0.076,0.139-0.159,0.209-0.236c0.183-0.203,0.365-0.405,0.547-0.619
			c0.003-0.004,0.007-0.008,0.01-0.012c0.033-0.024,0.063-0.057,0.095-0.081c0.287-0.214,0.567-0.443,0.828-0.703l13.926-13.878
			c0.103-0.101,0.212-0.19,0.319-0.283l0.349-0.307c6.179-5.492,15.595-5.236,21.435,0.585c2.93,2.92,4.543,6.824,4.543,10.993
			s-1.613,8.072-4.543,10.991l-18.558,18.496c-1.457-0.177-2.926-0.283-4.4-0.323c-0.161-0.014-0.322-0.029-0.485-0.032
			c-0.186-0.002-0.362-0.001-0.565,0.004c-0.011,0-0.022,0.002-0.034,0.002c-0.58,0-1.154,0.007-1.729,0.027h-0.005
			c-0.001,0-0.004,0-0.005,0h-0.006l-0.104,0.004c0,0-0.006,0-0.009,0c-0.05,0.002-0.099,0.004-0.149,0.005
			c-0.229,0.009-0.459,0.018-0.688,0.031l-0.006,0.001c-0.277,0.016-0.553,0.036-0.828,0.058c-0.333,0.027-0.664,0.058-0.996,0.091
			h-0.007l-0.196,0.019c-0.006,0-0.012,0.001-0.012,0.001l-0.011,0.001c-0.236,0.022-0.471,0.046-0.706,0.075
			c-0.001,0-0.002,0-0.002,0h-0.004c-0.003,0-0.007,0.001-0.007,0.001c-0.01,0.001-0.017,0.003-0.024,0.004
			c-0.646,0.079-1.285,0.18-1.923,0.289c-0.001,0-0.003,0.001-0.003,0.001h-0.002l-0.13,0.02c-0.217,0.034-0.435,0.068-0.648,0.109
			c-4.067,0.779-6.745,4.709-5.967,8.777c0.687,3.593,3.821,6.096,7.348,6.096c0.465,0,0.938-0.043,1.412-0.134l0.519-0.083
			c0.001,0,0.002-0.001,0.004-0.001c0.415-0.071,0.83-0.139,1.251-0.191l0.005-0.001l0.594-0.059
			c0.386-0.039,0.772-0.074,1.157-0.097c0.017-0.001,0.034-0.003,0.051-0.004c0.172-0.01,0.346-0.016,0.52-0.022l0.096-0.003h0.004
			c0.349-0.013,0.7-0.018,1.05-0.018c0.058,0,0.119-0.004,0.176-0.003l0.326,0.005c2.072,0.033,4.136,0.269,6.133,0.699
			c3.17,0.684,6.296,1.846,9.293,3.454c3.311,1.777,6.362,4.047,9.071,6.745c9.967,9.934,13.581,23.995,8.992,34.99
			c-0.374,0.897-0.554,1.824-0.572,2.74c-1.364-0.665-2.728-1.352-4.084-2.066c-6.754-3.555-14.618-2.945-20.643,0.896
			c-5.022-12.08-12.429-23.174-21.978-32.691c-23.252-23.173-39.567-51.581-44.119-75.779L314.547,88.285z M303.959,77.659
			l-0.628,0.626c1.015-6.956,3.551-12.612,7.568-16.887c0.81,0.17,1.659,0.215,2.527,0.099l41.696-5.524
			c0.851-0.112,1.79-0.04,2.788,0.215c0.603,0.155,1.212,0.381,1.816,0.659c-3.135,8.314-5.455,18.121-6.803,28.717
			c-1.429-2.872-3.326-5.55-5.689-7.905c-10.582-10.548-27.673-11.829-39.756-2.976C306.121,75.679,304.969,76.652,303.959,77.659z
			 M129.104,478.938c-22.134,0-44.268-8.394-61.113-25.182C34.81,420.687,15,380.688,15,346.758c0-17.769,5.618-32.76,16.246-43.352
			L293.074,42.462c16.452-16.395,43.583-20.421,74.032-11.439l-9.973,9.94c-1.342-0.074-2.673-0.034-3.982,0.139l-29.162,3.863
			c-0.264-0.952-0.72-1.868-1.379-2.687c-2.594-3.228-7.315-3.744-10.544-1.149l-10.587,8.507c-0.209,0.167-0.407,0.346-0.597,0.534
			c-8.544,8.515-13.061,20.788-13.061,35.491c0,30.705,19.09,68.804,49.819,99.429c16.283,16.229,25.251,37.847,25.251,60.872
			c0,23.052-8.985,44.702-25.302,60.963l-147.278,146.78C173.431,470.528,151.267,478.939,129.104,478.938z M480.755,229.434
			c-13.439,13.392-34.087,18.712-58.137,14.983c-4.096-0.63-7.926,2.17-8.561,6.263c-0.635,4.093,2.169,7.926,6.262,8.562
			c3.726,0.578,7.382,0.947,10.976,1.152L209.728,481.209c-11.962,11.923-31.965,15.307-55.504,9.588
			c17.113-4.328,33.312-13.146,46.677-26.466l147.278-146.78c19.161-19.096,29.714-44.52,29.714-71.588
			c0-7.723-0.863-15.31-2.536-22.655c0.394-0.441,0.747-0.93,1.037-1.475c1.426-2.683,4.78-3.709,7.47-2.292
			c2.754,1.45,5.547,2.821,8.304,4.075c16.016,7.281,31.463,10.906,45.018,10.906c1.85,0,3.665-0.068,5.441-0.203
			c0.088,0.003,0.177,0.013,0.265,0.013c0.566,0,1.131-0.072,1.685-0.199c11.511-1.219,21.296-5.356,28.371-12.407
			c2.935-2.924,2.942-7.673,0.019-10.607c-0.646-0.649-1.385-1.146-2.17-1.509l26.155-26.067c0.008,0.272,0.027,0.548,0.032,0.82
			C497.352,202.901,491.741,218.486,480.755,229.434z"/>
	</g>
</g>
<g>
</g>
<g>
</g>
<g>
</g>
<g>
</g>
<g>
</g>
<g>
</g>
<g>
</g>
<g>
</g>
<g>
</g>
<g>
</g>
<g>
</g>
<g>
</g>
<g>
</g>
<g>
</g>
<g>
</g>
</svg>
