<?xml version="1.0" encoding="utf-8"?>
<!-- Generator: Adobe Illustrator 17.0.0, SVG Export Plug-In . SVG Version: 6.00 Build 0)  -->
<!DOCTYPE svg PUBLIC "-//W3C//DTD SVG 1.1//EN" "http://www.w3.org/Graphics/SVG/1.1/DTD/svg11.dtd">
<svg version="1.1" id="Calque_1" xmlns="http://www.w3.org/2000/svg" xmlns:xlink="http://www.w3.org/1999/xlink" x="0px" y="0px"
	 width="260px" height="260px" viewBox="0 0 260 260" enable-background="new 0 0 260 260" xml:space="preserve">
<g>
	<g>
		<circle fill="#FFFFFF" cx="129.442" cy="130.136" r="117.868"/>
		<path fill="none" d="M129.442,250.227c-66.219,0-120.092-53.873-120.092-120.091S63.223,10.044,129.442,10.044
			s120.092,53.873,120.092,120.091S195.661,250.227,129.442,250.227z M129.442,14.492c-63.767,0-115.644,51.877-115.644,115.644
			s51.878,115.644,115.644,115.644c63.766,0,115.644-51.877,115.644-115.644S193.208,14.492,129.442,14.492z"/>
	</g>
	<g>
		<g>
			<g>
				<path fill="#C91517" d="M58.782,142.586v-25.65h5.692v19.923h12.55v5.727H58.782z"/>
				<path fill="#C91517" d="M84.812,122.491v4.458h7.373v5.589h-7.373v4.424h12.104v5.624H79.223v-25.683h17.693v5.589H84.812z"/>
				<path fill="#C91517" d="M107.209,129.726c0-7.064,5.726-12.824,12.79-12.824c3.635,0,7.133,1.543,9.567,4.286l-4.218,3.738
					c-1.371-1.508-3.292-2.366-5.349-2.366c-3.943,0-7.167,3.189-7.167,7.167c0,3.943,3.223,7.132,7.167,7.132
					c2.949,0,5.486-1.783,6.584-4.321H120v-5.657h12.825v2.846c0,7.064-5.762,12.791-12.825,12.791
					C112.936,142.517,107.209,136.79,107.209,129.726z"/>
				<path fill="#C91517" d="M141.402,142.586h-5.589v-25.683l12.893,0.034c3.156,0.172,7.853,2.401,7.853,7.99
					c0,3.429-1.783,5.555-3.876,6.721l5.522,10.939h-6.275l-4.938-9.841h-5.59V142.586z M141.402,127.155h7.235
					c0.24-0.035,0.858-0.138,1.406-0.446c0.445-0.24,0.892-0.652,0.892-1.783c0-0.995-0.308-1.543-1.097-1.989
					c-0.583-0.308-1.235-0.41-1.406-0.41h-7.03V127.155z"/>
				<path fill="#C91517" d="M166.954,122.491v4.458h7.372v5.589h-7.372v4.424h12.104v5.624h-17.693v-25.683h17.693v5.589H166.954z"
					/>
				<path fill="#C91517" d="M182.149,129.795c0-7.132,5.761-12.893,12.893-12.893c3.601,0,7.064,1.543,9.533,4.251l-4.149,3.738
					c-1.406-1.543-3.361-2.4-5.384-2.4c-4.046,0-7.304,3.258-7.304,7.304c0,4.012,3.258,7.27,7.304,7.27
					c2.023,0,3.978-0.858,5.384-2.401l4.149,3.772c-2.469,2.708-5.932,4.218-9.533,4.218
					C187.91,142.654,182.149,136.859,182.149,129.795z"/>
			</g>
		</g>
		<g>
			<g>
				<path fill="#C91517" d="M54.826,173.279v-25.683h12.893c3.155,0.172,7.853,2.468,7.853,7.989c0,5.59-4.629,7.785-7.784,7.853
					h-0.069h-7.304v9.841H54.826z M67.651,157.814c0.24-0.035,0.892-0.137,1.406-0.412c0.48-0.275,0.926-0.685,0.926-1.818
					c0-0.96-0.309-1.508-1.132-1.955c-0.583-0.308-1.234-0.41-1.371-0.445h-7.064v4.629H67.651z"/>
				<path fill="#C91517" d="M71.529,173.313l10.15-25.82h3.738l9.395,25.82h-6.138l-1.543-4.354h-7.784l-1.646,4.354H71.529z
					 M81.61,163.266h3.463l-1.646-4.561L81.61,163.266z"/>
				<path fill="#C91517" d="M103.081,173.279h-5.589v-25.683l12.893,0.034c3.155,0.172,7.853,2.401,7.853,7.99
					c0,3.429-1.783,5.555-3.875,6.721l5.521,10.939h-6.275l-4.938-9.841h-5.59V173.279z M103.081,157.849h7.235
					c0.24-0.035,0.857-0.138,1.406-0.446c0.446-0.24,0.892-0.652,0.892-1.783c0-0.995-0.309-1.543-1.098-1.989
					c-0.583-0.308-1.234-0.41-1.406-0.41h-7.029V157.849z"/>
				<path fill="#C91517" d="M123.043,173.279v-25.683h5.692v25.683H123.043z"/>
				<path fill="#C91517" d="M151.575,166.421c-0.206,2.229-1.681,4.252-3.944,5.487c-1.68,0.925-3.634,1.371-5.692,1.371
					c-0.445,0-0.892-0.035-1.303-0.068c-3.634-0.343-6.789-2.058-8.401-4.527l4.698-3.086c0.548,0.892,2.057,1.851,4.218,2.058
					c1.406,0.137,2.811-0.103,3.806-0.652c0.617-0.308,1.028-0.755,1.063-1.132c0.034-0.515-0.137-2.229-4.389-2.641
					c-6.069-0.582-9.842-4.114-9.396-8.744c0.206-2.298,1.68-4.286,3.978-5.555c1.988-1.028,4.491-1.508,6.995-1.268
					c3.6,0.343,6.754,2.058,8.4,4.526l-4.698,3.052c-0.548-0.858-2.058-1.783-4.252-1.989c-1.405-0.137-2.811,0.103-3.806,0.618
					c-0.583,0.342-0.995,0.788-1.028,1.132c-0.172,1.748,2.778,2.503,4.354,2.64v0.035
					C148.351,158.26,152.02,161.688,151.575,166.421z"/>
				<path fill="#C91517" d="M155.077,173.279v-25.683h5.692v25.683H155.077z"/>
				<path fill="#C91517" d="M170.098,153.185v4.458h7.372v5.589h-7.372v4.424h12.104v5.624h-17.693v-25.683h17.693v5.589H170.098z"
					/>
				<path fill="#C91517" d="M191.705,173.279h-5.726v-25.718h4.766l10.733,14.231v-14.231h5.726v25.718h-4.286l-11.213-14.848
					V173.279z"/>
			</g>
		</g>
		<g>
			<g>
				<g>
					<g>
						<path fill="#C91517" d="M127.955,99.374c-19.809,0-35.925-16.76-35.925-37.36v-0.556h71.852v0.556
							C163.881,82.614,147.765,99.374,127.955,99.374z M93.146,62.57c0.286,19.733,15.792,35.692,34.81,35.692
							c19.019,0,34.524-15.959,34.81-35.692H93.146z"/>
						<path fill="#C91517" d="M127.955,100.329c-20.336,0-36.882-17.189-36.882-38.316c0-0.834,0.678-1.512,1.512-1.512h70.74
							c0.834,0,1.512,0.678,1.512,1.512C164.837,83.141,148.292,100.329,127.955,100.329z M92.586,61.614c-0.22,0-0.4,0.179-0.4,0.4
							c0,20.515,16.046,37.204,35.77,37.204s35.77-16.689,35.77-37.204c0-0.22-0.179-0.4-0.4-0.4H92.586z M127.955,98.418
							c-18.782,0-34.464-15.895-34.958-35.434l-0.014-0.57h69.945l-0.014,0.57C162.42,82.523,146.737,98.418,127.955,98.418z
							 M94.128,63.526c0.766,18.678,15.826,33.78,33.828,33.78s33.061-15.101,33.828-33.78H94.128z"/>
					</g>
				</g>
			</g>
			<path fill="#C91517" d="M124.658,89.834c-0.412,0-0.825-0.159-1.136-0.476l-5.507-5.604c-0.617-0.628-0.608-1.636,0.019-2.253
				c0.628-0.617,1.636-0.608,2.253,0.019l5.507,5.604c0.617,0.628,0.608,1.636-0.019,2.253
				C125.464,89.682,125.061,89.834,124.658,89.834z"/>
			<path fill="#C91517" d="M136.12,78.233c-0.412,0-0.824-0.159-1.136-0.476l-5.507-5.604c-0.617-0.628-0.608-1.636,0.02-2.253
				c0.627-0.617,1.636-0.608,2.253,0.019l5.507,5.604c0.617,0.628,0.608,1.636-0.02,2.253
				C136.926,78.081,136.523,78.233,136.12,78.233z"/>
			<path fill="#C91517" d="M136.234,89.834c-0.409,0-0.819-0.157-1.13-0.471l-17.083-17.204c-0.62-0.624-0.616-1.633,0.008-2.253
				c0.624-0.62,1.633-0.616,2.253,0.008l17.083,17.204c0.62,0.624,0.616,1.633-0.008,2.253
				C137.046,89.68,136.64,89.834,136.234,89.834z"/>
		</g>
	</g>
</g>
<g>
	<path fill="#C91517" d="M75.332,188.031l-3.138,7.7h-0.935l-3.138-7.7h0.833c0.093,0,0.169,0.023,0.226,0.07s0.1,0.106,0.129,0.178
		l2.17,5.432c0.047,0.122,0.092,0.254,0.137,0.397c0.045,0.144,0.085,0.294,0.121,0.451c0.036-0.157,0.073-0.308,0.113-0.451
		c0.039-0.143,0.083-0.275,0.129-0.397l2.165-5.432c0.022-0.061,0.064-0.117,0.127-0.169c0.062-0.052,0.138-0.078,0.228-0.078
		H75.332z"/>
	<path fill="#C91517" d="M83.247,191.884c0,0.577-0.091,1.106-0.274,1.587c-0.183,0.482-0.441,0.897-0.774,1.244
		s-0.733,0.617-1.201,0.809s-0.985,0.287-1.55,0.287c-0.566,0-1.082-0.096-1.548-0.287c-0.466-0.192-0.865-0.461-1.198-0.809
		c-0.333-0.348-0.591-0.762-0.773-1.244c-0.183-0.481-0.274-1.011-0.274-1.587c0-0.577,0.091-1.107,0.274-1.588
		c0.182-0.482,0.441-0.897,0.773-1.247c0.333-0.349,0.733-0.62,1.198-0.814c0.466-0.193,0.982-0.29,1.548-0.29
		c0.565,0,1.082,0.096,1.55,0.29c0.468,0.193,0.868,0.465,1.201,0.814c0.333,0.35,0.591,0.765,0.774,1.247
		C83.156,190.777,83.247,191.307,83.247,191.884z M82.178,191.884c0-0.473-0.064-0.898-0.193-1.274
		c-0.129-0.376-0.312-0.694-0.548-0.954c-0.237-0.26-0.523-0.459-0.86-0.599s-0.713-0.21-1.128-0.21c-0.412,0-0.786,0.07-1.124,0.21
		c-0.336,0.14-0.624,0.339-0.862,0.599c-0.239,0.26-0.422,0.578-0.551,0.954c-0.129,0.376-0.193,0.801-0.193,1.274
		c0,0.472,0.064,0.896,0.193,1.27c0.129,0.375,0.312,0.691,0.551,0.951c0.238,0.26,0.525,0.458,0.862,0.596
		c0.337,0.138,0.712,0.207,1.124,0.207c0.415,0,0.792-0.069,1.128-0.207c0.336-0.138,0.623-0.336,0.86-0.596
		c0.236-0.26,0.419-0.577,0.548-0.951C82.114,192.78,82.178,192.356,82.178,191.884z"/>
	<path fill="#C91517" d="M89.598,188.907h-2.493v6.824h-1.037v-6.824H83.57v-0.876h6.028V188.907z"/>
	<path fill="#C91517" d="M96.427,195.731h-0.924c-0.19,0-0.329-0.073-0.419-0.22l-1.999-2.751c-0.061-0.086-0.126-0.148-0.196-0.186
		c-0.07-0.037-0.178-0.056-0.325-0.056h-0.79v3.213h-1.037v-7.7h2.176c0.487,0,0.908,0.049,1.263,0.148
		c0.355,0.098,0.647,0.241,0.878,0.427c0.232,0.186,0.402,0.411,0.514,0.675c0.111,0.263,0.167,0.558,0.167,0.883
		c0,0.272-0.043,0.527-0.129,0.763c-0.086,0.237-0.211,0.449-0.373,0.637c-0.163,0.188-0.362,0.348-0.597,0.481
		c-0.234,0.132-0.5,0.233-0.798,0.301c0.132,0.075,0.247,0.184,0.344,0.328L96.427,195.731z M92.87,191.76
		c0.301,0,0.567-0.037,0.798-0.11c0.231-0.073,0.424-0.177,0.58-0.312c0.155-0.134,0.273-0.295,0.352-0.481
		c0.079-0.186,0.118-0.392,0.118-0.618c0-0.458-0.15-0.804-0.451-1.037c-0.3-0.233-0.752-0.35-1.354-0.35h-1.139v2.907H92.87z"/>
	<path fill="#C91517" d="M102.219,194.882l-0.005,0.849h-4.745v-7.7h4.745v0.849h-3.703v2.558h2.999v0.817h-2.999v2.628H102.219z"/>
	<path fill="#C91517" d="M107.463,191.405h0.392c0.136,0,0.245-0.016,0.328-0.051c0.082-0.034,0.157-0.092,0.226-0.175l2.563-2.901
		c0.071-0.093,0.146-0.158,0.226-0.193c0.079-0.036,0.175-0.054,0.29-0.054h0.881l-2.933,3.315
		c-0.072,0.086-0.141,0.157-0.207,0.213s-0.137,0.101-0.212,0.137c0.096,0.032,0.184,0.079,0.263,0.142
		c0.079,0.063,0.156,0.144,0.231,0.245l3.063,3.648h-0.903c-0.068,0-0.127-0.005-0.175-0.013c-0.048-0.009-0.091-0.024-0.126-0.043
		c-0.036-0.02-0.068-0.043-0.094-0.07c-0.027-0.026-0.052-0.058-0.077-0.094l-2.654-3.057c-0.072-0.09-0.149-0.153-0.231-0.191
		c-0.083-0.037-0.208-0.056-0.376-0.056h-0.473v3.525h-1.037v-7.7h1.037V191.405z"/>
	<path fill="#C91517" d="M118.295,194.882l-0.005,0.849h-4.745v-7.7h4.745v0.849h-3.703v2.558h2.999v0.817h-2.999v2.628H118.295z"/>
	<path fill="#C91517" d="M122.207,188.031c0.473,0,0.88,0.047,1.223,0.14c0.342,0.093,0.623,0.226,0.843,0.397
		c0.22,0.172,0.382,0.382,0.486,0.632c0.104,0.249,0.156,0.529,0.156,0.841c0,0.19-0.03,0.371-0.089,0.545
		c-0.059,0.174-0.148,0.336-0.266,0.487c-0.118,0.15-0.268,0.285-0.449,0.405c-0.181,0.12-0.393,0.218-0.637,0.293
		c0.566,0.108,0.992,0.31,1.276,0.605c0.285,0.296,0.427,0.683,0.427,1.164c0,0.326-0.06,0.623-0.18,0.892
		c-0.12,0.268-0.296,0.499-0.527,0.693c-0.231,0.193-0.515,0.343-0.852,0.449c-0.336,0.106-0.72,0.159-1.15,0.159h-2.719v-7.7
		H122.207z M120.788,188.853v2.628h1.375c0.294,0,0.549-0.032,0.766-0.096c0.216-0.065,0.396-0.154,0.537-0.269
		c0.142-0.115,0.246-0.253,0.314-0.417c0.068-0.163,0.102-0.341,0.102-0.535c0-0.455-0.136-0.787-0.409-0.997
		c-0.272-0.209-0.695-0.314-1.268-0.314H120.788z M122.454,194.903c0.297,0,0.553-0.033,0.768-0.102
		c0.215-0.068,0.392-0.164,0.529-0.287c0.138-0.124,0.239-0.271,0.304-0.441c0.064-0.171,0.096-0.357,0.096-0.561
		c0-0.398-0.141-0.712-0.424-0.943c-0.283-0.231-0.707-0.346-1.273-0.346h-1.666v2.681H122.454z"/>
	<path fill="#C91517" d="M132.852,195.731h-0.806c-0.093,0-0.169-0.023-0.226-0.07s-0.1-0.106-0.129-0.178l-0.72-1.859h-3.455
		l-0.72,1.859c-0.021,0.064-0.062,0.122-0.123,0.172c-0.061,0.051-0.136,0.075-0.226,0.075h-0.806l3.079-7.7h1.053L132.852,195.731z
		 M130.681,192.872l-1.209-3.133c-0.036-0.093-0.073-0.201-0.113-0.325c-0.039-0.123-0.077-0.255-0.113-0.395
		c-0.075,0.291-0.152,0.532-0.231,0.725l-1.209,3.127H130.681z"/>
	<path fill="#C91517" d="M136.323,188.031c0.472,0,0.88,0.047,1.223,0.14c0.341,0.093,0.623,0.226,0.843,0.397
		s0.382,0.382,0.485,0.632c0.104,0.249,0.156,0.529,0.156,0.841c0,0.19-0.029,0.371-0.089,0.545
		c-0.059,0.174-0.147,0.336-0.265,0.487c-0.118,0.15-0.268,0.285-0.449,0.405c-0.181,0.12-0.394,0.218-0.638,0.293
		c0.567,0.108,0.992,0.31,1.276,0.605c0.285,0.296,0.428,0.683,0.428,1.164c0,0.326-0.06,0.623-0.18,0.892
		c-0.121,0.268-0.296,0.499-0.527,0.693s-0.514,0.343-0.851,0.449c-0.337,0.106-0.72,0.159-1.15,0.159h-2.718v-7.7H136.323z
		 M134.904,188.853v2.628h1.375c0.294,0,0.548-0.032,0.766-0.096c0.216-0.065,0.395-0.154,0.537-0.269
		c0.142-0.115,0.247-0.253,0.315-0.417c0.068-0.163,0.102-0.341,0.102-0.535c0-0.455-0.136-0.787-0.409-0.997
		c-0.272-0.209-0.694-0.314-1.267-0.314H134.904z M136.569,194.903c0.298,0,0.554-0.033,0.769-0.102
		c0.215-0.068,0.391-0.164,0.529-0.287c0.138-0.124,0.24-0.271,0.304-0.441c0.064-0.171,0.096-0.357,0.096-0.561
		c0-0.398-0.14-0.712-0.424-0.943s-0.707-0.346-1.274-0.346h-1.665v2.681H136.569z"/>
	<path fill="#C91517" d="M149.82,192.029v2.955c-0.387,0.279-0.8,0.489-1.24,0.626c-0.438,0.138-0.92,0.207-1.442,0.207
		c-0.62,0-1.179-0.096-1.676-0.287c-0.498-0.192-0.924-0.46-1.276-0.806s-0.624-0.76-0.815-1.244
		c-0.189-0.484-0.285-1.016-0.285-1.596c0-0.588,0.093-1.124,0.277-1.607c0.185-0.483,0.447-0.898,0.787-1.244
		c0.341-0.346,0.754-0.613,1.241-0.803c0.488-0.19,1.032-0.285,1.635-0.285c0.304,0,0.586,0.022,0.849,0.067
		c0.261,0.045,0.502,0.11,0.725,0.193c0.222,0.084,0.428,0.186,0.618,0.306s0.367,0.255,0.531,0.406l-0.295,0.472
		c-0.046,0.072-0.106,0.117-0.18,0.137c-0.073,0.02-0.155,0.003-0.245-0.051c-0.085-0.05-0.184-0.111-0.295-0.183
		c-0.111-0.072-0.247-0.14-0.405-0.207c-0.16-0.066-0.348-0.123-0.564-0.169s-0.474-0.07-0.771-0.07
		c-0.433,0-0.825,0.071-1.177,0.213c-0.352,0.141-0.651,0.344-0.897,0.607c-0.247,0.264-0.437,0.582-0.569,0.957
		c-0.132,0.374-0.199,0.794-0.199,1.26c0,0.483,0.07,0.916,0.207,1.297c0.138,0.382,0.335,0.706,0.592,0.973
		c0.256,0.267,0.567,0.47,0.931,0.609c0.366,0.14,0.775,0.21,1.23,0.21c0.358,0,0.677-0.041,0.954-0.121
		c0.278-0.081,0.55-0.193,0.815-0.336v-1.693h-1.199c-0.068,0-0.122-0.02-0.164-0.059c-0.041-0.039-0.062-0.088-0.062-0.145v-0.591
		H149.82z"/>
	<path fill="#C91517" d="M158.529,191.884c0,0.577-0.092,1.106-0.274,1.587c-0.182,0.482-0.441,0.897-0.774,1.244
		c-0.333,0.348-0.733,0.617-1.2,0.809c-0.468,0.192-0.985,0.287-1.551,0.287c-0.565,0-1.082-0.096-1.548-0.287
		c-0.466-0.192-0.864-0.461-1.198-0.809c-0.333-0.348-0.592-0.762-0.774-1.244c-0.182-0.481-0.274-1.011-0.274-1.587
		c0-0.577,0.092-1.107,0.274-1.588c0.182-0.482,0.441-0.897,0.774-1.247c0.333-0.349,0.732-0.62,1.198-0.814
		c0.466-0.193,0.983-0.29,1.548-0.29c0.565,0,1.082,0.096,1.551,0.29c0.467,0.193,0.867,0.465,1.2,0.814
		c0.333,0.35,0.592,0.765,0.774,1.247C158.437,190.777,158.529,191.307,158.529,191.884z M157.46,191.884
		c0-0.473-0.064-0.898-0.194-1.274c-0.129-0.376-0.311-0.694-0.547-0.954c-0.237-0.26-0.523-0.459-0.861-0.599
		c-0.336-0.14-0.712-0.21-1.128-0.21c-0.412,0-0.786,0.07-1.123,0.21c-0.337,0.14-0.624,0.339-0.862,0.599
		c-0.239,0.26-0.422,0.578-0.551,0.954c-0.13,0.376-0.194,0.801-0.194,1.274c0,0.472,0.064,0.896,0.194,1.27
		c0.129,0.375,0.312,0.691,0.551,0.951c0.237,0.26,0.525,0.458,0.862,0.596c0.337,0.138,0.711,0.207,1.123,0.207
		c0.416,0,0.792-0.069,1.128-0.207c0.337-0.138,0.623-0.336,0.861-0.596c0.236-0.26,0.418-0.577,0.547-0.951
		C157.396,192.78,157.46,192.356,157.46,191.884z"/>
	<path fill="#C91517" d="M162.988,194.903c0.319,0,0.605-0.053,0.855-0.161c0.251-0.108,0.463-0.258,0.636-0.451
		c0.173-0.193,0.307-0.425,0.397-0.693c0.092-0.269,0.138-0.564,0.138-0.887v-4.68h1.036v4.68c0,0.444-0.071,0.856-0.213,1.236
		c-0.142,0.38-0.344,0.708-0.607,0.986c-0.262,0.278-0.584,0.496-0.964,0.653c-0.379,0.157-0.805,0.236-1.279,0.236
		c-0.472,0-0.899-0.079-1.278-0.236c-0.38-0.157-0.703-0.375-0.968-0.653c-0.265-0.277-0.468-0.606-0.61-0.986
		c-0.142-0.38-0.211-0.792-0.211-1.236v-4.68h1.036v4.675c0,0.322,0.046,0.618,0.138,0.887c0.091,0.268,0.223,0.499,0.397,0.693
		c0.173,0.193,0.387,0.345,0.639,0.455C162.385,194.848,162.669,194.903,162.988,194.903z"/>
	<path fill="#C91517" d="M173.611,195.731h-0.925c-0.189,0-0.329-0.073-0.418-0.22l-1.999-2.751
		c-0.06-0.086-0.126-0.148-0.195-0.186c-0.07-0.037-0.178-0.056-0.325-0.056h-0.79v3.213h-1.038v-7.7h2.176
		c0.488,0,0.908,0.049,1.263,0.148c0.354,0.098,0.647,0.241,0.878,0.427c0.232,0.186,0.403,0.411,0.514,0.675
		c0.11,0.263,0.167,0.558,0.167,0.883c0,0.272-0.043,0.527-0.13,0.763c-0.085,0.237-0.21,0.449-0.373,0.637
		c-0.164,0.188-0.362,0.348-0.597,0.481s-0.501,0.233-0.798,0.301c0.132,0.075,0.247,0.184,0.344,0.328L173.611,195.731z
		 M170.053,191.76c0.302,0,0.568-0.037,0.799-0.11c0.231-0.073,0.424-0.177,0.58-0.312c0.156-0.134,0.273-0.295,0.352-0.481
		c0.079-0.186,0.118-0.392,0.118-0.618c0-0.458-0.15-0.804-0.451-1.037c-0.3-0.233-0.752-0.35-1.354-0.35h-1.139v2.907H170.053z"/>
	<path fill="#C91517" d="M182.665,188.031v7.7h-0.913v-5.658c0-0.075,0.003-0.156,0.008-0.242c0.005-0.086,0.012-0.174,0.018-0.263
		l-2.643,4.814c-0.083,0.161-0.209,0.241-0.376,0.241h-0.151c-0.168,0-0.293-0.08-0.375-0.241l-2.697-4.836
		c0.021,0.19,0.031,0.365,0.031,0.527v5.658h-0.913v-7.7h0.769c0.093,0,0.164,0.009,0.214,0.027c0.051,0.018,0.098,0.068,0.146,0.15
		l2.659,4.74c0.043,0.086,0.085,0.175,0.127,0.268c0.041,0.093,0.079,0.188,0.115,0.285c0.035-0.096,0.073-0.192,0.113-0.287
		s0.083-0.186,0.129-0.272l2.612-4.734c0.043-0.082,0.09-0.132,0.142-0.15c0.052-0.018,0.125-0.027,0.218-0.027H182.665z"/>
	<path fill="#C91517" d="M189.382,194.882l-0.005,0.849h-4.745v-7.7h4.745v0.849h-3.703v2.558h2.999v0.817h-2.999v2.628H189.382z"/>
	<path fill="#C91517" d="M196.044,188.907h-2.494v6.824h-1.036v-6.824h-2.499v-0.876h6.029V188.907z"/>
</g>
</svg>
