<?xml version="1.0" encoding="utf-8"?>
<!-- Generator: Adobe Illustrator 19.2.1, SVG Export Plug-In . SVG Version: 6.00 Build 0)  -->
<svg version="1.1" xmlns="http://www.w3.org/2000/svg" xmlns:xlink="http://www.w3.org/1999/xlink" x="0px" y="0px"
	 viewBox="0 0 640 480" enable-background="new 0 0 640 480" xml:space="preserve">
<g id="Layer_1" display="none">
	<rect display="inline" fill="#E6E6E6" width="640" height="393.7"/>
</g>
<g id="Layer_2">
	<g>
		<defs>
			<rect id="SVGID_1_" x="288.6" y="20.1" width="13.1" height="26.3"/>
		</defs>
		<clipPath id="SVGID_2_">
			<use xlink:href="#SVGID_1_"  overflow="visible"/>
		</clipPath>
		<g clip-path="url(#SVGID_2_)">
			<defs>
				<rect id="SVGID_3_" x="175.3" y="-890.8" width="241.1" height="4685.5"/>
			</defs>
			<clipPath id="SVGID_4_">
				<use xlink:href="#SVGID_3_"  overflow="visible"/>
			</clipPath>
			<g clip-path="url(#SVGID_4_)" enable-background="new    ">
				<g>
					<defs>
						<rect id="SVGID_5_" x="288.3" y="19.9" width="13.6" height="27.1"/>
					</defs>
					<clipPath id="SVGID_6_">
						<use xlink:href="#SVGID_5_"  overflow="visible"/>
					</clipPath>
					<g clip-path="url(#SVGID_6_)">
						<defs>
							<path id="SVGID_7_" d="M295.2,20.1c-3.4,0-6.6,2.9-6.6,6.6V39h4.9v5.7c0,0.7,1,1.6,1.6,1.6s1.6-1,1.6-1.6V39h4.9V26.7
								C301.7,23.1,298.6,20.1,295.2,20.1z M290.2,37.4V26.7c0-2.7,2.4-4.9,4.9-4.9s4.9,2.2,4.9,4.9v10.7H290.2z"/>
						</defs>
						<clipPath id="SVGID_8_">
							<use xlink:href="#SVGID_7_"  overflow="visible"/>
						</clipPath>
						<g clip-path="url(#SVGID_8_)">
							<defs>
								<rect id="SVGID_9_" x="288.3" y="19.9" width="13.6" height="27.1"/>
							</defs>
							<clipPath id="SVGID_10_">
								<use xlink:href="#SVGID_9_"  overflow="visible"/>
							</clipPath>
							<rect x="284.8" y="16.4" clip-path="url(#SVGID_10_)" fill="#FFFFFF" width="20.7" height="33.8"/>
						</g>
					</g>
				</g>
			</g>
		</g>
	</g>
	<g>
		<defs>
			<path id="SVGID_11_" d="M195.4,26.1c-0.6-0.8-1.6-1.3-2.7-1.4v-3.4c0-0.4-0.3-0.7-0.7-0.7h-2.4v-2.4c0-0.4-0.3-0.7-0.7-0.7h-3.1
				c-0.4,0-0.7,0.3-0.7,0.7v4h-1.7v-2.6c0-0.4-0.3-0.7-0.7-0.7h-3.1c-0.4,0-0.7,0.3-0.7,0.7v0.8h-2.4c-0.4,0-0.7,0.3-0.7,0.7v3.6
				c-1.2,0.1-2.1,0.6-2.7,1.4c-1.4,1.8-0.9,4.7-0.9,4.8c0,0,3.6,17.3,3.6,17.3c0.1,0.3,0.4,0.6,0.7,0.6H192c0.3,0,0.6-0.2,0.7-0.6
				c0,0,3.6-17.3,3.6-17.3C196.3,30.8,196.8,27.9,195.4,26.1z M192.7,26.1c0.7,0.1,1.2,0.4,1.6,0.8c0.7,0.9,0.8,2.4,0.7,3.2h-2.3
				V26.1z M189.5,21.9h1.7v8.1h-0.5c-0.4,0-0.7,0.3-0.7,0.7c0,0.4-0.2,0.9-0.5,1.3V21.9z M186.4,18.8h1.7v14.4
				c-0.5,0.3-1.1,0.5-1.7,0.7V18.8z M183.2,23.5h1.7v10.7c-0.3,0-0.6,0-0.9,0c-0.3,0-0.6,0-0.9,0V23.5z M180.1,20.2h1.7v13.7
				c-0.6-0.2-1.2-0.4-1.7-0.7V20.2z M176.9,21.7h1.7v10.3c-0.3-0.4-0.5-0.8-0.5-1.3c0-0.4-0.3-0.7-0.7-0.7h-0.5V21.7z M173.9,26.9
				c0.4-0.5,0.9-0.8,1.6-0.8v4h-2.3C173.1,29.2,173.2,27.8,173.9,26.9z M191.4,47.4h-14.7l-3.3-15.9h3.4c0.5,2.3,3.7,4.1,7.3,4.1
				s6.7-1.8,7.3-4.1h3.4L191.4,47.4z"/>
		</defs>
		<clipPath id="SVGID_12_">
			<use xlink:href="#SVGID_11_"  overflow="visible"/>
		</clipPath>
		<g clip-path="url(#SVGID_12_)">
			<defs>
				<rect id="SVGID_13_" x="97.1" y="-881" width="268.1" height="5125.4"/>
			</defs>
			<clipPath id="SVGID_14_">
				<use xlink:href="#SVGID_13_"  overflow="visible"/>
			</clipPath>
			<g clip-path="url(#SVGID_14_)" enable-background="new    ">
				<g>
					<defs>
						<rect id="SVGID_15_" x="170.9" y="17.2" width="26.8" height="32.1"/>
					</defs>
					<clipPath id="SVGID_16_">
						<use xlink:href="#SVGID_15_"  overflow="visible"/>
					</clipPath>
					<g clip-path="url(#SVGID_16_)">
						<defs>
							<rect id="SVGID_17_" x="170.9" y="17.2" width="26.8" height="32.1"/>
						</defs>
						<clipPath id="SVGID_18_">
							<use xlink:href="#SVGID_17_"  overflow="visible"/>
						</clipPath>
						<rect x="167.6" y="13.3" clip-path="url(#SVGID_18_)" fill="#FFFFFF" width="33.1" height="39.6"/>
					</g>
				</g>
			</g>
		</g>
	</g>
	<g>
		<defs>
			<path id="SVGID_19_" d="M252.2,24.3h-8.5v-4.9h1.5c0.6,0,1.1-0.5,1.1-1.1s-0.5-1.1-1.1-1.1h-2.6c-0.6,0-1.1,0.5-1.1,1.1v6h-8.5
				c-0.6,0-1.1,0.5-1.1,1.1v4.1c0,0.6,0.5,1.1,1.1,1.1h1.5l1.2,17.8c0,0.6,0.5,1,1.1,1h11.5c0.6,0,1-0.4,1.1-1l1.2-17.8h1.5
				c0.6,0,1.1-0.5,1.1-1.1v-4.1C253.3,24.8,252.8,24.3,252.2,24.3z M247.4,47.1h-9.4l-1.1-16.6h11.7L247.4,47.1z M251.1,28.4h-1.5
				h-14h-1.5v-1.9h16.9L251.1,28.4L251.1,28.4z"/>
		</defs>
		<clipPath id="SVGID_20_">
			<use xlink:href="#SVGID_19_"  overflow="visible"/>
		</clipPath>
		<g clip-path="url(#SVGID_20_)">
			<defs>
				<rect id="SVGID_21_" x="55.8" y="-919.9" width="274.8" height="5341.6"/>
			</defs>
			<clipPath id="SVGID_22_">
				<use xlink:href="#SVGID_21_"  overflow="visible"/>
			</clipPath>

				<rect x="227.7" y="12.9" clip-path="url(#SVGID_22_)" fill="#FFFFFF" stroke="#E6E6E6" stroke-width="0.25" stroke-miterlimit="10" width="29.8" height="40.7"/>
			<use xlink:href="#SVGID_21_"  overflow="visible" fill="none" stroke="#E6E6E6" stroke-width="0.25" stroke-miterlimit="10"/>
		</g>

			<use xlink:href="#SVGID_19_"  overflow="visible" fill-rule="evenodd" clip-rule="evenodd" fill="none" stroke="#E6E6E6" stroke-width="0.25" stroke-miterlimit="10"/>
	</g>
	<g>
		<g>
			<defs>
				<path id="SVGID_23_" d="M48,44.1c-11.3,0-20.6-9.6-20.6-21.4v-0.3h41.1v0.3C68.6,34.5,59.3,44.1,48,44.1z M28.1,23
					c0.2,11.3,9,20.5,19.9,20.5c10.9,0,19.8-9.1,19.9-20.5H28.1z"/>
			</defs>
			<clipPath id="SVGID_24_">
				<use xlink:href="#SVGID_23_"  overflow="visible"/>
			</clipPath>
			<g clip-path="url(#SVGID_24_)">
				<defs>
					<rect id="SVGID_25_" x="-40.6" y="-822.1" width="274.8" height="5341.6"/>
				</defs>
				<clipPath id="SVGID_26_">
					<use xlink:href="#SVGID_25_"  overflow="visible"/>
				</clipPath>
				<rect x="23.2" y="18.1" clip-path="url(#SVGID_26_)" fill="#FFFFFF" width="49.7" height="30.3"/>
			</g>
		</g>
		<g>
			<defs>
				<rect id="SVGID_27_" x="26.9" y="21.9" width="42.2" height="22.8"/>
			</defs>
			<clipPath id="SVGID_28_">
				<use xlink:href="#SVGID_27_"  overflow="visible"/>
			</clipPath>
			<g clip-path="url(#SVGID_28_)">
				<defs>
					<rect id="SVGID_29_" x="-40.6" y="-822.1" width="274.8" height="5341.6"/>
				</defs>
				<clipPath id="SVGID_30_">
					<use xlink:href="#SVGID_29_"  overflow="visible"/>
				</clipPath>
				<g clip-path="url(#SVGID_30_)" enable-background="new    ">
					<g>
						<defs>
							<rect id="SVGID_31_" x="26.4" y="21.3" width="42.9" height="24"/>
						</defs>
						<clipPath id="SVGID_32_">
							<use xlink:href="#SVGID_31_"  overflow="visible"/>
						</clipPath>
						<g clip-path="url(#SVGID_32_)">
							<defs>
								<path id="SVGID_33_" d="M48,44.7c-11.6,0-21.1-9.8-21.1-22c0-0.5,0.4-0.9,0.9-0.9h40.5c0.5,0,0.9,0.4,0.9,0.9
									C69.1,34.8,59.7,44.7,48,44.7z M27.8,22.5c-0.1,0-0.2,0.1-0.2,0.2C27.5,34.5,36.7,44,48,44c11.3,0,20.5-9.6,20.5-21.3
									c0-0.1-0.1-0.2-0.2-0.2H27.8z M48,43.6c-10.7,0-19.7-9.1-20-20.3l0-0.3h40l0,0.3C67.7,34.5,58.8,43.6,48,43.6z M28.7,23.6
									c0.4,10.7,9.1,19.4,19.4,19.4c10.3,0,18.9-8.7,19.4-19.4H28.7z"/>
							</defs>
							<clipPath id="SVGID_34_">
								<use xlink:href="#SVGID_33_"  overflow="visible"/>
							</clipPath>
							<g clip-path="url(#SVGID_34_)">
								<defs>
									<rect id="SVGID_35_" x="26.4" y="21.3" width="42.9" height="24"/>
								</defs>
								<clipPath id="SVGID_36_">
									<use xlink:href="#SVGID_35_"  overflow="visible"/>
								</clipPath>
								<rect x="22.6" y="17.6" clip-path="url(#SVGID_36_)" fill="#FFFFFF" width="50.8" height="31.4"/>
							</g>
						</g>
					</g>
				</g>
			</g>
		</g>
		<g>
			<defs>
				<path id="SVGID_37_" d="M46.1,38.7c-0.2,0-0.5-0.1-0.7-0.3l-3.2-3.2c-0.4-0.4-0.3-0.9,0-1.3c0.4-0.4,0.9-0.3,1.3,0l3.2,3.2
					c0.4,0.4,0.3,0.9,0,1.3C46.6,38.6,46.4,38.7,46.1,38.7"/>
			</defs>
			<clipPath id="SVGID_38_">
				<use xlink:href="#SVGID_37_"  overflow="visible"/>
			</clipPath>
			<g clip-path="url(#SVGID_38_)">
				<defs>
					<rect id="SVGID_39_" x="-40.6" y="-822.1" width="274.8" height="5341.6"/>
				</defs>
				<clipPath id="SVGID_40_">
					<use xlink:href="#SVGID_39_"  overflow="visible"/>
				</clipPath>
				<rect x="37.8" y="29.3" clip-path="url(#SVGID_40_)" fill="#FFFFFF" width="13.6" height="13.6"/>
			</g>
		</g>
		<g>
			<defs>
				<path id="SVGID_41_" d="M52.7,32c-0.2,0-0.5-0.1-0.7-0.3l-3.2-3.2c-0.4-0.4-0.3-0.9,0-1.3c0.4-0.4,0.9-0.3,1.3,0l3.2,3.2
					c0.4,0.4,0.3,0.9,0,1.3C53.1,31.9,52.9,32,52.7,32"/>
			</defs>
			<clipPath id="SVGID_42_">
				<use xlink:href="#SVGID_41_"  overflow="visible"/>
			</clipPath>
			<g clip-path="url(#SVGID_42_)">
				<defs>
					<rect id="SVGID_43_" x="-40.6" y="-822.1" width="274.8" height="5341.6"/>
				</defs>
				<clipPath id="SVGID_44_">
					<use xlink:href="#SVGID_43_"  overflow="visible"/>
				</clipPath>
				<rect x="44.3" y="22.7" clip-path="url(#SVGID_44_)" fill="#FFFFFF" width="13.6" height="13.6"/>
			</g>
		</g>
		<g>
			<defs>
				<path id="SVGID_45_" d="M52.8,38.7c-0.2,0-0.5-0.1-0.6-0.3l-9.8-9.9c-0.4-0.4-0.4-0.9,0-1.3c0.4-0.4,0.9-0.4,1.3,0l9.8,9.9
					c0.4,0.4,0.4,0.9,0,1.3C53.2,38.6,53,38.7,52.8,38.7"/>
			</defs>
			<clipPath id="SVGID_46_">
				<use xlink:href="#SVGID_45_"  overflow="visible"/>
			</clipPath>
			<g clip-path="url(#SVGID_46_)">
				<defs>
					<rect id="SVGID_47_" x="-40.6" y="-822.1" width="274.8" height="5341.6"/>
				</defs>
				<clipPath id="SVGID_48_">
					<use xlink:href="#SVGID_47_"  overflow="visible"/>
				</clipPath>
				<rect x="37.8" y="22.7" clip-path="url(#SVGID_48_)" fill="#FFFFFF" width="20.2" height="20.3"/>
			</g>
		</g>
	</g>
	<path id="salad" fill="#FFFFFF" stroke="#FFFFFF" stroke-width="0.25" stroke-miterlimit="10" d="M135,28.6c0-2.1-1.2-4.1-3.1-4.9
		c-0.3-1.8-1.7-3.2-3.6-3.5c0-0.2-0.1-0.4-0.1-0.5c-0.3-1.1-1.3-1.9-2.4-2.1c-0.7-0.1-1.4,0.1-2,0.5c-0.5-0.3-1.1-0.5-1.7-0.5
		c-1.6,0-2.9,1.2-3.1,2.7c-0.1,0-0.1,0-0.2,0c-0.1-0.1-0.1-0.2-0.2-0.4c-0.8-1.6-2.2-2.5-3.5-2.3c-0.9,0.1-1.6,0.7-2,1.6
		c-0.8-0.3-1.5-0.4-2.2-0.2c-0.7,0.3-1.3,0.8-1.7,1.6c-0.5,1.1-0.5,2.4,0,3.7c-0.6,0.4-1.1,1-1.3,1.8c-0.4,1.3-0.3,2.8,0.4,4.2
		c0.1,0.2,0.2,0.3,0.3,0.5c-0.7,0.4-1.2,1.1-1.4,1.8c-0.4,1.2-0.2,2.7,0.5,4c0.3,0.6,0.8,1.1,1.3,1.6c-0.2,0.7,0,1.5,0.4,2.3
		c0.6,1,1.7,1.7,2.8,1.8c1.8,3.4,4,4.8,7.5,6.3l0,0c0.5,0.3,1,0.4,1.6,0.4c0.3,0,0.6,0,0.9-0.1c0,0,0,0,0,0c0,0,0,0,0,0
		c0.3-0.1,0.5-0.2,0.7-0.3c1-0.6,1.5-1.6,1.1-2.7c-1-3-1-5.3,0.3-6.8c2.1-2.5,6.9-1.9,7-1.9l0.6,0.1l0.1-0.6c0-0.1,0.2-1.8-0.9-3
		c-0.1-0.1-0.1-0.1-0.2-0.2c0.3-0.1,0.6-0.2,0.9-0.3C133.7,32.5,135,30.6,135,28.6z M113,41.6l-0.2-0.3l-0.3,0c0,0,0,0,0,0
		c-0.9,0-1.7-0.5-2.2-1.3c-0.3-0.6-0.4-1.2-0.2-1.7l0.2-0.4l-0.3-0.3c-0.5-0.4-1-0.9-1.3-1.5c-0.6-1-0.7-2.1-0.4-3.1
		c0.2-0.7,0.7-1.2,1.4-1.5l0.6-0.3l-0.4-0.6c-0.2-0.3-0.4-0.5-0.5-0.8c-0.6-1.1-0.7-2.4-0.4-3.4c0.2-0.7,0.6-1.1,1.2-1.4l0.5-0.2
		l-0.2-0.5l0-0.1c-0.5-1.1-0.5-2.3-0.1-3.2c0.2-0.4,0.5-0.8,1-1c0.5-0.2,1.2-0.1,1.8,0.4l0.6,0.4l0.2-0.7c0.2-0.8,0.7-1.4,1.3-1.5
		c0.8-0.1,1.8,0.6,2.4,1.7c0,0.1,0.1,0.2,0.1,0.3c0,0,0,0,0,0c-0.1,0.1-0.2,0.1-0.3,0.2c-0.1,0-0.1,0.1-0.2,0.1c0,0-0.1,0.1-0.1,0.1
		c-0.2,0.2-0.4,0.4-0.6,0.7c0,0,0,0,0,0.1c-0.1,0.1-0.2,0.3-0.3,0.4c0,0,0,0.1-0.1,0.1c0,0.1-0.1,0.1-0.1,0.2c0,0.1-0.1,0.2-0.1,0.2
		c0,0.1,0,0.1-0.1,0.2c0,0.1-0.1,0.2-0.1,0.4c0,0,0,0.1,0,0.1c0,0.2,0,0.3,0,0.5c0,0.1,0,0.2,0,0.3c-2.1,0.4-3.6,2.2-3.6,4.3
		c0,0.6,0.1,1.2,0.4,1.8c-0.6,0.6-0.9,1.4-0.9,2.3c0,1.3,0.7,2.5,1.9,3c0,0.3,0,0.6,0,0.9c0,0.1,0,0.2,0,0.3c0,0.2,0,0.4,0,0.6
		c0,0.1,0,0.2,0,0.3c0,0.2,0,0.3,0.1,0.5c0,0.1,0,0.2,0,0.3c0,0.2,0.1,0.3,0.1,0.5c0,0.1,0,0.2,0.1,0.3c0,0.1,0.1,0.3,0.1,0.4
		c0,0.1,0,0.2,0.1,0.3c0,0.2,0.1,0.3,0.1,0.5c0,0.1,0.1,0.2,0.1,0.2c0.1,0.2,0.1,0.4,0.2,0.5c0,0,0,0.1,0.1,0.1
		c0.1,0.2,0.2,0.4,0.3,0.7c0,0.1,0.1,0.1,0.1,0.2c0.1,0.2,0.2,0.3,0.2,0.5c0,0.1,0.1,0.2,0.1,0.3c0.1,0.1,0.2,0.3,0.2,0.4
		c0.1,0.1,0.1,0.2,0.2,0.3c0.1,0.1,0.2,0.3,0.2,0.4c0.1,0.1,0.1,0.2,0.2,0.3c0.1,0.1,0.2,0.3,0.3,0.4c0.1,0.1,0.1,0.2,0.2,0.3
		c0.1,0.1,0.2,0.3,0.3,0.4c0.1,0.1,0.1,0.2,0.2,0.3c0.1,0.1,0.2,0.3,0.3,0.4c0.1,0.1,0.1,0.2,0.2,0.3c0,0,0,0,0,0
		C115.7,45.4,114.3,44,113,41.6z M128.9,32.5l-0.1,0l-0.5,0.1l-0.1,1.2l0.5,0c0.7,0,1.2,0.3,1.5,0.7c0.4,0.5,0.6,1.2,0.6,1.7
		c-1.5-0.1-5.3-0.1-7.3,2.3c-1.5,1.8-1.6,4.4-0.4,7.9c0.3,0.8-0.3,1.2-0.6,1.4c0,0-0.1,0-0.1,0c-1.1-2.6-1.7-5-2.1-7.1c0,0,0,0,0,0
		c-0.3-1.7-0.4-3.2-0.3-4.5c0.8-1.3,3-1.4,3-1.4c0.3,0,0.5-0.3,0.5-0.6c0-0.3-0.2-0.5-0.5-0.5c0,0,0,0,0,0c-0.1,0-1.7,0-2.9,0.8
		c0.2-1.1,0.4-2,0.7-2.9c0,0,0.1-0.1,0.1-0.1c0-0.1,0-0.1,0-0.2c0.4-1,0.9-1.8,1.4-2.5c2.5-0.5,4.3,0.3,4.4,0.3c0.1,0,0.1,0,0.2,0
		c0.2,0,0.4-0.1,0.5-0.3c0.1-0.3,0-0.6-0.3-0.7c-0.1,0-1.6-0.7-3.8-0.5c1.1-1.1,2-1.6,2.1-1.7c0.8-0.4,2,0.1,2.3,0.3
		c0.1,0.1,0.2,0.1,0.3,0.1c0.2,0,0.4-0.1,0.5-0.3c0.2-0.3,0.1-0.6-0.2-0.7c-0.1,0-1.3-0.7-2.6-0.6c0.1-0.4,0.3-0.8,0.5-1
		c0.2-0.2,0.1-0.6-0.1-0.8c-0.2-0.2-0.6-0.1-0.8,0.1c0,0-0.8,1-0.8,2.1c-0.8,0.5-2.9,2-4.3,4.9c-0.1,0.2-0.2,0.3-0.2,0.5
		c-1.5-1-1.2-2.8-1.2-2.9c0-0.3-0.2-0.6-0.5-0.6c-0.3-0.1-0.6,0.2-0.6,0.5c-0.2,1,0.1,3,1.9,4.1c-0.4,1.2-0.7,2.6-0.8,4.3
		c0,0.1,0,0.1,0,0.2c-0.1,1.2,0,2.5,0.2,3.9c-0.7-0.4-1-0.9-1-1c-0.1-0.3-0.5-0.4-0.7-0.2c-0.3,0.1-0.4,0.5-0.2,0.7
		c0,0.1,0.7,1.3,2.2,1.7c0.4,2,1,4.3,2,6.8c-0.3,0-0.7-0.1-1-0.3l0,0c-0.1,0-0.1-0.1-0.2-0.1c-0.1,0-0.1-0.1-0.2-0.2c0,0,0,0,0,0
		l-0.2-0.3c-3.4-3.9-5.1-6.8-5-11.7l0-0.4l-0.4-0.1c-0.9-0.3-1.5-1.2-1.5-2.2c0-0.7,0.3-1.3,0.8-1.8l0.4-0.3l-0.2-0.4
		c-0.3-0.5-0.4-1.1-0.4-1.7c0-1.8,1.4-3.2,3.2-3.3l0.7,0l-0.2-0.6c-0.1-0.2-0.1-0.4-0.1-0.7c0-0.2,0-0.3,0-0.5c0,0,0-0.1,0-0.1
		c0-0.1,0.1-0.2,0.1-0.4c0,0,0-0.1,0-0.1c0.1-0.1,0.1-0.3,0.2-0.4c0,0,0,0,0,0c0.2-0.3,0.4-0.5,0.7-0.7c0,0,0.1-0.1,0.1-0.1
		c0.1-0.1,0.2-0.1,0.3-0.2c0.1,0,0.1-0.1,0.2-0.1c0.3-0.1,0.6-0.2,0.9-0.2l0.5,0v-0.5l0,0c0-1.1,0.9-2,2-2c0.5,0,1,0.2,1.4,0.5
		l0.4,0.3l0.4-0.4c0.4-0.4,0.9-0.6,1.5-0.5c0.7,0.1,1.3,0.6,1.5,1.3c0.1,0.2,0.1,0.5,0.1,0.7l-0.1,0.6h0.6c1.6,0,2.9,1.3,3.1,2.9
		l0,0.4l0.3,0.1c1.7,0.6,2.8,2.2,2.7,4c0,1.6-1.1,3-2.6,3.7C130.5,32.6,129.7,32.7,128.9,32.5z"/>
</g>
</svg>
